<svg xmlns="http://www.w3.org/2000/svg" viewBox="0 0 512 512">
<path style="fill:#F0E4D6;" d="M472.949,0H360.136c-19.17,0-34.712,15.542-34.712,34.712v86.78c0,19.17,15.542,34.712,34.712,34.712
	h26.034v43.39l43.39-43.39h43.39c19.17,0,34.712-15.542,34.712-34.712v-86.78C507.661,15.542,492.119,0,472.949,0z"/>
<path style="fill:#EBDCCA;" d="M490.687,5.016c-35.814,85.374-106.253,124.98-153.27,142.51c6.265,5.563,14.345,8.652,22.719,8.678
	h26.034v43.39l43.39-43.39h43.39c19.17,0,34.712-15.542,34.712-34.712v-86.78C507.635,22.511,501.187,11.229,490.687,5.016z"/>
<path style="fill:#FEC9A3;" d="M360.136,512l86.78-164.881h-69.424l-43.39,78.102v-69.424c0-28.759-23.309-52.068-52.068-52.068
	h-52.068c-14.379,0-26.034-11.655-26.034-26.034v-34.712h-69.424v34.712c0,14.379-11.655,26.034-26.034,26.034H56.407
	c-28.759,0-52.068,23.309-52.068,52.068V512H360.136z"/>
<g>
	<path style="fill:#F5B789;" d="M73.459,512H56.103v-23.075c-21.348-28.75-22.771-67.679-3.584-97.914l6.344-9.997l14.657,9.303
		l-6.344,9.988c-15.829,24.932-14.067,57.17,4.382,80.237c1.232,1.536,1.9,3.454,1.9,5.424V512z"/>
	<path style="fill:#F5B789;" d="M282.338,512h-17.356v-26.034c0-1.97,0.668-3.888,1.9-5.424
		c18.449-23.057,20.211-55.296,4.382-80.228l-6.344-9.997l14.657-9.303l6.344,9.997c19.187,30.234,17.764,69.163-3.584,97.914V512z"
		/>
</g>
<path style="fill:#F9B44D;" d="M290.712,208.271v-86.78C290.712,54.393,236.318,0,169.22,0l0,0
	C102.122,0,47.729,54.393,47.729,121.492v86.78c0,28.759,23.309,52.068,52.068,52.068h138.847
	C267.403,260.339,290.712,237.03,290.712,208.271z"/>
<path style="fill:#F7AA36;" d="M169.22,0c-11.759,0.009-23.448,1.727-34.712,5.094c51.478,15.351,86.762,62.681,86.78,116.398v86.78
	c0,28.759-23.309,52.068-52.068,52.068h69.424c28.759,0,52.068-23.309,52.068-52.068v-86.78C290.712,54.393,236.318,0,169.22,0z"/>
<path style="fill:#FEC9A3;" d="M455.593,347.119h-78.102c0-28.759,23.309-52.068,52.068-52.068h78.102
	C507.661,323.81,484.352,347.119,455.593,347.119z"/>
<g>
	<rect x="360.136" y="34.712" style="fill:#CCBFB0;" width="60.746" height="17.356"/>
	<rect x="438.237" y="34.712" style="fill:#CCBFB0;" width="34.712" height="17.356"/>
	<rect x="360.136" y="69.424" style="fill:#CCBFB0;" width="112.814" height="17.356"/>
	<rect x="360.136" y="104.136" style="fill:#CCBFB0;" width="60.746" height="17.356"/>
</g>
<path style="fill:#F7C097;" d="M203.976,278.137c0-0.148,0-0.295,0-0.443v-34.712h-69.467v34.712c0,0.148,0,0.295,0,0.443
	c21.868,10.978,47.642,10.978,69.511,0H203.976z"/>
<path style="fill:#FEC9A3;" d="M91.119,144.87v37.367c0,43.138,34.964,78.102,78.102,78.102s78.102-34.964,78.102-78.102v-69.424
	c0.017-12.939-3.193-25.678-9.346-37.055L91.119,144.87z"/>
<rect x="108.475" y="355.797" style="fill:#E8594A;" width="121.492" height="95.458"/>
<path style="fill:#4398D1;" d="M377.492,347.119l-43.39,78.102v-69.424c0-28.759-23.309-52.068-52.068-52.068h-27.77L169.22,416.542
	L88.515,303.729H56.407c-28.759,0-52.068,23.309-52.068,52.068V512h355.797l86.78-164.881H377.492z"/>
<path style="fill:#3F8FC4;" d="M446.915,347.119h-69.424l-43.39,78.102v-69.424c-0.009-26.537-19.968-48.822-46.349-51.738
	C272.132,425.281,199.316,483.866,135.02,512h225.115L446.915,347.119z"/>
<g>
	<path style="fill:#3685BA;" d="M73.459,512H56.103v-23.075c-21.348-28.75-22.771-67.679-3.584-97.914l6.344-9.997l14.657,9.303
		l-6.344,9.988c-15.829,24.932-14.067,57.17,4.382,80.237c1.232,1.536,1.9,3.454,1.9,5.424V512z"/>
	<path style="fill:#3685BA;" d="M282.338,512h-17.356v-26.034c0-1.97,0.668-3.888,1.9-5.424
		c18.449-23.057,20.211-55.296,4.382-80.228l-6.344-9.997l14.657-9.303l6.344,9.997c19.187,30.234,17.764,69.163-3.584,97.914V512z"
		/>
</g>
<path style="fill:#F7C097;" d="M247.322,182.237v-69.424c0.017-12.939-3.193-25.678-9.346-37.055L215.951,86.12
	c3.523,11.464,5.32,23.378,5.337,35.371v86.78c0,28.759-23.309,52.068-52.068,52.068
	C212.359,260.339,247.322,225.375,247.322,182.237L247.322,182.237z"/>
</svg>
