<svg viewBox="0 0 64 64" xmlns="http://www.w3.org/2000/svg">
<g id="Edit-2" data-name="Edit">
	<path d="m11 57h40a2 2 0 0 0 2-2v-50a2.006 2.006 0 0 0 -2-2h-26v14a2 2 0 0 1 -2 2h-14v36a2.006 2.006 0 0 0 2 2z" fill="#d1e7f8"/>
	<path d="m9 29v26a2 2 0 0 0 2 2h27c-16.029 0-29-12.523-29-28z" fill="#9bc9ff"/>
	<path d="m5 53h4v-34l12-12h-16a2 2 0 0 0 -2 2v42a2 2 0 0 0 2 2z" fill="#2488ff"/>
	<path d="m23 19a2 2 0 0 0 2-2v-14l-4 4-12 12z" fill="#3d9ae2"/>
	<path d="m54 28.091-3.464-2-15 25.981 4.964-.598z" fill="#ff3051"/>
	<path d="m54 28.091-13.5 23.383 1.964 4.598 15-25.981z" fill="#ffcd00"/>
	<path d="m57.464 30.091 2-3.464-6.928-4-2 3.464 3.464 2z" fill="#006df0"/>
	<path d="m60.464 24.9a4 4 0 0 0 -6.928-4l-1 1.732 6.928 4z" fill="#d1d3d4"/>
	<path d="m40.005 57.7 2.459-1.623-1.964-4.6-4.964.6-.177 2.946a5.987 5.987 0 0 1 4.646 2.677z" fill="#d1d3d4"/>
	<path d="m40.005 57.7a5.987 5.987 0 0 0 -4.646-2.677l-.359 5.977z" fill="#939598"/>
</g>
</svg>