<svg xmlns="http://www.w3.org/2000/svg" viewBox="0 0 496.794 496.794">
	<rect x="183.45" y="408.397" style="fill:#3E4347;" width="48.864" height="80.16"/>
	<path style="fill:#5B5F63;" d="M284.218,494.861c-3.184-12.992-14.832-22.672-28.8-22.672h-95.072
		c-13.968,0-25.616,9.68-28.8,22.672H284.218z"/>
	<path style="fill:#E9EFF4;" d="M399.994,419.341l-383.92,1.376C4.858,420.749-2.918,409.533,1.05,399.053l74.416-196.48
		c2.352-6.208,8.288-10.32,14.928-10.336l234.24-0.496c6.624-0.016,12.592,4.064,14.96,10.256l75.264,195.6
		C418.906,408.061,411.21,419.309,399.994,419.341z"/>
	<polygon style="fill:#428DC3;" points="21.082,396.893 88.202,201.293 326.89,200.765 394.954,395.613 "/>
	<g>
		<polygon style="fill:#E9EFF4;" points="354.298,240.173 60.954,240.877 56.442,252.797 358.858,252.029 	"/>
		<polygon style="fill:#E9EFF4;" points="379.082,304.589 36.458,305.565 30.282,321.901 385.338,320.861 	"/>
		<polygon style="fill:#E9EFF4;" points="274.17,196.173 316.25,407.773 296.682,407.837 262.106,196.189 	"/>
		<polygon style="fill:#E9EFF4;" points="141.034,196.461 153.114,196.429 119.77,408.461 100.138,408.525 	"/>
		<polygon style="fill:#E9EFF4;" points="201.594,196.333 213.674,196.301 218.074,408.125 198.474,408.189 	"/>
	</g>
	<g>
		<polygon style="fill:#FFD93B;" points="435.802,10.637 412.282,1.933 402.266,38.957 412.714,42.877 	"/>
		<polygon style="fill:#FFD93B;" points="444.522,62.477 493.738,27.629 471.962,8.893 435.802,54.205 	"/>
		<polygon style="fill:#FFD93B;" points="451.914,80.765 451.914,96.013 496.794,102.109 496.794,74.669 	"/>
		<polygon style="fill:#FFD93B;" points="444.954,125.629 467.61,148.717 477.194,129.549 449.306,113.005 	"/>
		<polygon style="fill:#FFD93B;" points="422.298,148.717 455.402,204.045 474.362,185.757 429.274,139.581 	"/>
		<polygon style="fill:#FFD93B;" points="394.858,151.773 391.802,197.517 416.202,194.893 405.306,151.773 	"/>
		<polygon style="fill:#FFD93B;" points="346.938,171.805 366.106,178.781 372.202,148.717 357.402,142.621 	"/>
		<polygon style="fill:#FFD93B;" points="289.002,139.581 302.506,160.973 343.018,127.373 334.746,115.181 	"/>
		<polygon style="fill:#FFD93B;" points="332.138,88.397 278.986,80.765 278.986,106.029 332.138,99.501 	"/>
		<polygon style="fill:#FFD93B;" points="343.018,52.893 310.794,16.733 299.466,42.877 339.098,62.477 	"/>
		<polygon style="fill:#FFD93B;" points="377.002,39.613 374.378,1.933 350.426,11.069 363.706,39.613 	"/>
		<circle style="fill:#FFD93B;" cx="389.626" cy="93.405" r="48.32"/>
	</g>
</svg>