<svg xmlns="http://www.w3.org/2000/svg" id="Filled_expand" enable-background="new 0 0 512 512" height="512px" viewBox="0 0 512 512" width="512px" class=""><g><circle cx="256" cy="96" fill="#ff593f" r="56" data-original="#FF593F" class="" data-old_color="#ff593f" style="fill:#FFFFFF"/><path d="m376 440h112v64h-112z" fill="#bde660" data-original="#BDE660" class="" data-old_color="#bde660" style="fill:#8DF7FF"/><path d="m24 440h112v64h-112z" fill="#bde660" data-original="#BDE660" class="" data-old_color="#bde660" style="fill:#8DF7FF"/><path d="m361.969 200h-211.938c-13.785 21.333-110.277 170.667-124.062 192h460.062c-13.785-21.333-110.277-170.667-124.062-192z" fill="#ffd642" data-original="#FFD642" class="" data-old_color="#ffd642" style="fill:#8DF7FF"/><path d="m403.323 264h-294.646c-13.785 21.333-27.569 42.667-41.354 64h377.354c-13.785-21.333-27.569-42.667-41.354-64z" fill="#ffe68c" data-original="#FFE68C" class="" data-old_color="#ffe68c" style="fill:#8DF7FF"/><circle cx="256" cy="464" fill="#bde660" r="24" data-original="#BDE660" class="" data-old_color="#bde660" style="fill:#8DF7FF"/><path d="m256 160c35.29 0 64-28.71 64-64s-28.71-64-64-64-64 28.71-64 64 28.71 64 64 64zm0-112c26.467 0 48 21.533 48 48s-21.533 48-48 48-48-21.533-48-48 21.533-48 48-48z" data-original="#000000" class="active-path" data-old_color="#000000" style="fill:#496FC1"/><path d="m488 432h-16v-16h-16v16h-48v-16h-16v16h-16c-4.418 0-8 3.582-8 8v64c0 4.418 3.582 8 8 8h112c4.418 0 8-3.582 8-8v-64c0-4.418-3.582-8-8-8zm-8 64h-96v-48h96z" data-original="#000000" class="active-path" data-old_color="#000000" style="fill:#496FC1"/><path d="m416 464h32v16h-32z" data-original="#000000" class="active-path" data-old_color="#000000" style="fill:#496FC1"/><path d="m136 432h-16v-16h-16v16h-48v-16h-16v16h-16c-4.418 0-8 3.582-8 8v64c0 4.418 3.582 8 8 8h112c4.418 0 8-3.582 8-8v-64c0-4.418-3.582-8-8-8zm-8 64h-96v-48h96z" data-original="#000000" class="active-path" data-old_color="#000000" style="fill:#496FC1"/><path d="m64 464h32v16h-32z" data-original="#000000" class="active-path" data-old_color="#000000" style="fill:#496FC1"/><path d="m486.031 400c2.93 0 5.625-1.602 7.026-4.175s1.283-5.706-.307-8.167l-41.354-64-41.354-64-41.354-64c-1.474-2.281-4.004-3.658-6.719-3.658h-25.969v16h21.614l31.016 48h-77.061l-8.468-39.313-1.871-8.687h18.77v-16h-169.969c-2.715 0-5.246 1.377-6.719 3.658l-41.354 64-41.354 64-41.354 64c-1.59 2.461-1.708 5.594-.307 8.167s4.097 4.175 7.026 4.175h46.031v-16h-31.337l31.016-48h111.522l-1.871 8.687-8.467 39.313h-84.863v16h160v33.012c-11.229 2.901-20.087 11.759-22.988 22.988h-33.012v16h33.012c3.561 13.786 16.104 24 30.988 24s27.426-10.214 30.988-24h33.012v-16h-33.012c-2.901-11.229-11.759-20.087-22.988-22.988v-33.012zm-214.031 64c0 8.822-7.178 16-16 16s-16-7.178-16-16 7.178-16 16-16 16 7.178 16 16zm-44.863-256h57.725l8.468 39.313 1.871 8.687h-78.402l1.871-8.687zm-13.784 64h85.295l10.338 48h-105.971zm125.784 112-8.468-39.313-1.87-8.687h111.522l31.016 48zm59.831-112 31.015 48h-104.63l-10.338-48zm-244.582-64h56.384l-1.871 8.687-8.467 39.313h-77.061zm-72.369 112 31.015-48h83.953l-10.338 48zm109.084 55.313 8.467-39.313h112.863l10.339 48h-133.54z" data-original="#000000" class="active-path" data-old_color="#000000" style="fill:#496FC1"/><path d="m336 456h16v16h-16z" data-original="#000000" class="active-path" data-old_color="#000000" style="fill:#496FC1"/><path d="m160 456h16v16h-16z" data-original="#000000" class="active-path" data-old_color="#000000" style="fill:#496FC1"/><path d="m248 0h16v16h-16z" data-original="#000000" class="active-path" data-old_color="#000000" style="fill:#496FC1"/><path d="m185.775 25.774h16v16h-16z" transform="matrix(.707 -.707 .707 .707 32.873 146.912)" data-original="#000000" class="active-path" data-old_color="#000000" style="fill:#496FC1"/><path d="m310.225 150.225h16v16h-16z" transform="matrix(.707 -.707 .707 .707 -18.676 271.362)" data-original="#000000" class="active-path" data-old_color="#000000" style="fill:#496FC1"/><path d="m310.225 25.775h16v16h-16z" transform="matrix(.707 -.707 .707 .707 69.324 234.912)" data-original="#000000" class="active-path" data-old_color="#000000" style="fill:#496FC1"/><path d="m185.774 150.226h16v16h-16z" transform="matrix(.707 -.707 .707 .707 -55.127 183.363)" data-original="#000000" class="active-path" data-old_color="#000000" style="fill:#496FC1"/><path d="m160 88h16v16h-16z" data-original="#000000" class="active-path" data-old_color="#000000" style="fill:#496FC1"/><path d="m336 88h16v16h-16z" data-original="#000000" class="active-path" data-old_color="#000000" style="fill:#496FC1"/><path d="m472 176h-16v48c0 3.236 1.949 6.153 4.938 7.391.99.41 2.029.609 3.06.609 2.082 0 4.128-.813 5.659-2.343l24-24-11.313-11.313-10.344 10.343z" data-original="#000000" class="active-path" data-old_color="#000000" style="fill:#496FC1"/><path d="m456 144h16v16h-16z" data-original="#000000" class="active-path" data-old_color="#000000" style="fill:#496FC1"/><path d="m456 116v12h16v-12c0-15.439-12.561-28-28-28h-76v16h76c6.617 0 12 5.383 12 12z" data-original="#000000" class="active-path" data-old_color="#000000" style="fill:#496FC1"/><path d="m48.002 232c1.03 0 2.07-.199 3.06-.609 2.989-1.238 4.938-4.155 4.938-7.391v-48h-16v28.687l-10.343-10.343-11.313 11.313 24 24c1.53 1.531 3.575 2.343 5.658 2.343z" data-original="#000000" class="active-path" data-old_color="#000000" style="fill:#496FC1"/><path d="m40 144h16v16h-16z" data-original="#000000" class="active-path" data-old_color="#000000" style="fill:#496FC1"/><path d="m56 116c0-6.617 5.383-12 12-12h76v-16h-76c-15.439 0-28 12.561-28 28v12h16z" data-original="#000000" class="active-path" data-old_color="#000000" style="fill:#496FC1"/></g> </svg>