<?xml version="1.0"?>
<svg xmlns="http://www.w3.org/2000/svg" xmlns:xlink="http://www.w3.org/1999/xlink" version="1.1" id="Layer_1" x="0px" y="0px" viewBox="0 0 511.999 511.999" style="enable-background:new 0 0 511.999 511.999;" xml:space="preserve" width="512px" height="512px" class=""><g><path style="fill:#466BB1" d="M121.494,463.248c-23.324,0-41.474-6.324-53.946-18.796c-21.72-21.72-24.677-62.678-8.114-112.371  c18.108-54.324,56.549-112.711,108.242-164.404c27.928-27.928,58.131-52.031,88.323-71.099L267.13,57.5H256  c-38.124,21.737-76.525,51.157-111.933,86.566C88.778,199.354,47.471,262.377,27.756,321.522  C6.741,384.57,12.487,436.614,43.938,468.063c18.695,18.695,45.513,28.576,77.557,28.576c40.23,0,87.154-15.142,134.506-42.14  l11.13-39.077h-11.13C208.092,445.678,160.213,463.248,121.494,463.248z" data-original="#1D71B8" class="" data-old_color="#1D71B8"/><path style="fill:#82A6EA" d="M468.063,43.939c-18.695-18.695-45.515-28.577-77.558-28.577c-40.231,0-87.155,15.142-134.506,42.14  v39.078c47.908-30.256,95.786-47.826,134.506-47.826c23.324,0,41.474,6.324,53.947,18.797c21.721,21.721,24.678,62.679,8.114,112.37  c-18.109,54.324-56.55,112.711-108.243,164.404c-27.927,27.927-58.131,52.031-88.322,71.098v39.077  c38.124-21.737,76.525-51.157,111.933-86.565c55.288-55.288,96.594-118.309,116.31-177.456  C505.259,127.43,499.513,75.388,468.063,43.939z" data-original="#134A79" class="active-path" data-old_color="#134A79"/><path style="fill:#36D1DC" d="M167.677,344.323c-51.693-51.693-90.134-110.08-108.242-164.404  c-16.564-49.692-13.607-90.648,8.114-112.37c12.473-12.473,30.623-18.797,53.947-18.797c38.718,0,86.597,17.571,134.505,47.826  h11.13L256,57.501c-47.351-26.998-94.274-42.14-134.505-42.14c-32.045,0-58.863,9.883-77.558,28.577  c-31.451,31.45-37.198,83.493-16.181,146.54c19.715,59.146,61.021,122.168,116.31,177.456  c35.408,35.408,73.809,64.828,111.933,86.565h11.13l-11.13-39.077C225.807,396.354,195.605,372.251,167.677,344.323z" data-original="#77AAD4" class="" data-old_color="#77AAD4"/><path style="fill:#2CBAC4" d="M484.243,321.522c-19.715-59.146-61.021-122.168-116.31-177.456  C332.525,108.658,294.124,79.238,256,57.501v39.078c30.191,19.068,60.395,43.171,88.323,71.099  c51.693,51.693,90.134,110.08,108.242,164.404c16.565,49.693,13.608,90.65-8.113,112.371  c-12.473,12.472-30.621,18.796-53.941,18.796c-38.724-0.001-86.604-17.572-134.511-47.826v39.077  c47.351,26.997,94.274,42.14,134.506,42.141c32.046,0,58.863-9.882,77.558-28.576C499.513,436.612,505.259,384.57,484.243,321.522z" data-original="#4A8EC6" class="" data-old_color="#4A8EC6"/><g>
	<circle style="fill:#FD5575;" cx="150.639" cy="33.39" r="33.39" data-original="#FD5575" class=""/>
	<circle style="fill:#FD5575;" cx="150.639" cy="478.609" r="33.39" data-original="#FD5575" class=""/>
</g><polygon style="fill:#F9B233;" points="345.043,239.304 296.307,239.304 330.769,204.842 307.158,181.231 256,232.389 239.304,256   239.304,345.043 272.696,345.043 272.696,296.307 307.158,330.769 330.769,307.158 296.307,272.696 345.043,272.696 " data-original="#F9B233" class=""/><polygon style="fill:#FAC15C;" points="272.696,166.957 239.304,166.957 239.304,215.693 204.842,181.231 181.231,204.842   215.693,239.304 166.956,239.304 166.956,272.696 215.693,272.696 181.231,307.158 204.842,330.769 256,279.611 272.696,256 " data-original="#FAC15C" class=""/><path style="fill:#F9B233;" d="M205.913,256c0,27.662,22.424,50.087,50.087,50.087L278.261,256L256,205.913  C228.337,205.913,205.913,228.338,205.913,256z" data-original="#F9B233" class=""/><path style="fill:#FB8454" d="M256,205.913v100.174c27.662,0,50.087-22.424,50.087-50.087S283.662,205.913,256,205.913z" data-original="#FB8454" class="" data-old_color="#FB8454"/><path style="fill:#82A6EA" d="M434.149,223.479C428.649,234.3,422.452,245.166,415.61,256v32.521h18.539  c7.368-10.784,14.17-21.646,20.364-32.521v-32.521L434.149,223.479L434.149,223.479z" data-original="#134A79" class="active-path" data-old_color="#134A79"/></g> </svg>
