<svg xmlns="http://www.w3.org/2000/svg" height="512px" viewBox="0 0 512 512" width="512px" class=""><g><path d="m368 488h-48l7.04-260.53.96-35.47h32l.77 28.61z" fill="#48add9" data-original="#48ADD9" class=""/><path d="m360.77 220.61-3-1.74a23 23 0 0 1 -24.7 1.99c-1.59 1.91-4.08 4.53-6.03 6.61l.96-35.47v-.04h32v.04z" fill="#45a7d1" data-original="#45A7D1"/><path d="m344 344c-83.812 0-152-68.188-152-152s68.188-152 152-152 152 68.188 152 152-68.188 152-152 152zm0-288c-74.992 0-136 61.008-136 136s61.008 136 136 136 136-61.008 136-136-61.008-136-136-136z" fill="#ebebe9" data-original="#EBEBE9" class=""/><path d="m344 312a120 120 0 1 1 120-120 120.136 120.136 0 0 1 -120 120zm0-224a104 104 0 1 0 104 104 104.115 104.115 0 0 0 -104-104z" fill="#ebebe9" data-original="#EBEBE9" class=""/><path d="m486.425 266.43a188.119 188.119 0 0 0 -118.988-73.73c.018-.391.115-.76.115-1.156a23.93 23.93 0 0 0 -15.552-22.434v-137.06a8.246 8.246 0 0 0 -8.429-8.05 8.442 8.442 0 0 0 -7.781 4.954 188.127 188.127 0 0 0 -3.649 141.783 23.932 23.932 0 0 0 -12.141 20.81 24.289 24.289 0 0 0 .544 5.037l-116.61 67.326a8.247 8.247 0 0 0 -2.758 11.325 8.443 8.443 0 0 0 8.181 4.262 188.118 188.118 0 0 0 123.711-66.632 23.024 23.024 0 0 0 24.7-2l117.87 68.055a8.246 8.246 0 0 0 11.187-3.274 8.444 8.444 0 0 0 -.4-9.216z" fill="#4db7e5" data-original="#4DB7E5" class=""/><path d="m24 440h256l64-192h-256z" fill="#60d1e0" data-original="#60D1E0" class=""/><path d="m26.182 440h253.818l64-192h-38.545z" fill="#5ac6d4" data-original="#5AC6D4"/><g fill="#3fb7c7"><path d="m344 248h-16.844l-64 192h16.844z" data-original="#000000"/><path d="m263.156 248-64 192h16.867l64-192z" data-original="#000000"/><path d="m199.156 248-64 192h16.867l64-192z" data-original="#000000"/><path d="m135.156 248-64 192h16.867l64-192z" data-original="#000000"/><path d="m53.333 352h256l5.334-16h-256z" data-original="#000000"/><path d="m37.333 400h256l5.334-16h-256z" data-original="#000000"/><path d="m74.667 288-5.334 16h256l5.334-16z" data-original="#000000"/></g><path d="m160 440h32v48h-32z" fill="#60d1e0" transform="matrix(-1 0 0 -1 352 928)" data-original="#60D1E0" class=""/><path d="m160 440h32v16h-32z" fill="#57bfcc" transform="matrix(-1 0 0 -1 352 896)" data-original="#57BFCC"/><path d="m128 480h96v16h-96z" fill="#60d1e0" data-original="#60D1E0" class=""/><path d="m296 480h96v16h-96z" fill="#4db7e5" data-original="#4DB7E5" class=""/><path d="m224 24a0 0 0 0 1 0 0 48 48 0 0 1 -48 48 0 0 0 0 1 0 0 48 48 0 0 1 48-48z" fill="#7eb457" data-original="#7EB457" class="active-path" data-old_color="#7eb457" style="fill:#57BFCC"/><path d="m488 352a0 0 0 0 1 0 0 48 48 0 0 1 -48 48 0 0 0 0 1 0 0 48 48 0 0 1 48-48z" fill="#7eb457" transform="matrix(0 -1 1 0 88 840)" data-original="#7EB457" class="active-path" data-old_color="#7eb457" style="fill:#57BFCC"/><path d="m120 120a0 0 0 0 1 0 0 48 48 0 0 1 -48 48 0 0 0 0 1 0 0 48 48 0 0 1 48-48z" fill="#7eb457" transform="matrix(0 -1 1 0 -48 240)" data-original="#7EB457" class="active-path" data-old_color="#7eb457" style="fill:#57BFCC"/></g> </svg>