<svg viewBox="0 0 512 512" xmlns="http://www.w3.org/2000/svg"><circle cx="400" cy="120" fill="#f8bb59" r="56"/><path d="m56 328h256v160h-256z" fill="#eaeae8"/><path d="m384 232-72 96v160h144v-160z" fill="#dbdbdb"/><path d="m352 376h64v80h-64z" fill="#4298d1"/><path d="m352 384h56v72h-56z" fill="#48a4e1"/><path d="m264 440h-56v-32-32h56z" fill="#8dc5bc"/><path d="m104 376h56v64h-56z" fill="#8dc5bc"/><path d="m104 408h56v32h-56z" fill="#4298d1"/><path d="m104 408h48v24h-48z" fill="#48a4e1"/><path d="m208 408h56v32h-56z" fill="#4298d1"/><path d="m344 456h80v32h-80z" fill="#cbcbcb"/><path d="m344 472h80v16h-80z" fill="#c3c3c3"/><path d="m16 480h480v16h-480z" fill="#83bd93"/><path d="m312 328h-256l72-96h256z" fill="#69b9e7"/><path d="m56 328h256l72-96h-256zm52-56h44l-12 16h-44zm8 48h-44l12-16h44zm64 0h-44l12-16h44zm-20-32 12-16h44l-12 16zm84 32h-44l12-16h44zm-20-32 12-16h44l-12 16zm84 32h-44l12-16h44zm24-32h-44l12-16h44zm-8-48h44l-12 16h-44zm-64 0h44l-12 16h-44zm-64 0h44l-12 16h-44zm-20 0-12 16h-44l12-16z" fill="#4298d1"/><path d="m412.422 117.266-17.688-8.844a4.943 4.943 0 0 1 0-8.844 11.836 11.836 0 0 1 10.532 0l7.156 3.578a8 8 0 0 0 7.156-14.312l-7.156-3.578a27.28 27.28 0 0 0 -4.422-1.595v-11.671h-16v11.671a27.28 27.28 0 0 0 -4.422 1.595 20.945 20.945 0 0 0 0 37.468l17.688 8.844a4.943 4.943 0 0 1 0 8.844 11.836 11.836 0 0 1 -10.532 0l-7.156-3.578a8 8 0 0 0 -7.156 14.312l7.156 3.578a27.178 27.178 0 0 0 4.422 1.593v11.673h16v-11.673a27.178 27.178 0 0 0 4.422-1.593 20.945 20.945 0 0 0 0-37.468z" fill="#ec9e15"/><circle cx="144" cy="120" fill="#f8bb59" r="56"/><path d="m328 168h-32v16h12.688l-36.688 36.688-114.344-114.344-11.312 11.312 120 120a8 8 0 0 0 11.312 0l42.344-42.344v12.688h16v-32a8 8 0 0 0 -8-8z" fill="#ec9e15"/><path d="m132.878 152.5a40 40 0 0 0 -73.756 0 24 24 0 0 0 4.878 47.5h64a24 24 0 0 0 4.878-47.5z" fill="#ebebeb"/><g fill="#fdb62f"><path d="m98.778 23.866h16.006v23.998h-16.006z" transform="matrix(.915 -.404 .404 .915 -5.384 46.237)"/><path d="m44.529 98.164h15.997v24.005h-15.997z" transform="matrix(.107 -.994 .994 .107 -62.623 150.614)"/><path d="m227.474 117.832h15.997v24.005h-15.997z" transform="matrix(.107 -.994 .994 .107 81.208 350.076)"/><path d="m186.255 37.701h23.997v15.997h-23.997z" transform="matrix(.589 -.808 .808 .589 44.473 178.907)"/></g><path d="m208 408h48v24h-48z" fill="#48a4e1"/><path d="m56 328h256v8h-256z" fill="#cbcbcb"/><path d="m104 376h56v8h-56z" fill="#7eb0a8"/><path d="m208 376h56v8h-56z" fill="#7eb0a8"/></svg>