<svg viewBox="0 0 64 64" xmlns="http://www.w3.org/2000/svg">
	<circle cx="20" cy="58" fill="#838f9b" r="4"/>
	<circle cx="49" cy="58" fill="#838f9b" r="4"/>
	<path d="m16 25v2h-12c-1.1 0-2-.9-2-2 0-.55.22-1.05.59-1.41.36-.37.86-.59 1.41-.59h10c1.1 0 2 .9 2 2z" fill="#fcd770"/>
	<path d="m45.9 25.28c-1.88-.68-3.54-1.82-4.85-3.28h-21.05v26h30v-22c-1.44 0-2.82-.25-4.1-.72z" fill="#dfb28b"/>
	<path d="m30 22h10v6h-10z" fill="#b27946"/>
	<circle cx="50" cy="14" fill="#e6e9ed" r="12"/>
	<path d="m58 13v1c0 2.96-1.61 5.54-4 6.92v4.08l.1.28c-1.28.47-2.66.72-4.1.72s-2.82-.25-4.1-.72l.1-.28v-4.08c-2.39-1.38-4-3.96-4-6.92v-1l2-3h4v6h4v-6h4z" fill="#fcd770"/>
	<path d="m45 43h2v2h-2z"/>
	<path d="m41 43h2v2h-2z"/>
	<path d="m37 43h2v2h-2z"/>
	<path d="m37 39h10v2h-10z"/>
	<path d="m63 14c0-7.168-5.832-13-13-13s-13 5.832-13 13c0 2.578.764 4.977 2.063 7h-20.063v26c-.732 0-1.409.212-2 .556v-19.556-3c0-1.654-1.346-3-3-3h-10c-1.654 0-3 1.346-3 3s1.346 3 3 3h11v23c0 1.352.677 2.543 1.706 3.268-1.037.917-1.706 2.242-1.706 3.732 0 2.757 2.243 5 5 5s5-2.243 5-5c0-1.13-.391-2.162-1.026-3h21.051c-.634.838-1.025 1.87-1.025 3 0 2.757 2.243 5 5 5s5-2.243 5-5-2.243-5-5-5h-30c-1.103 0-2-.897-2-2s.897-2 2-2h32.228c2.072 0 3.954-1.304 4.683-3.244l2.026-5.404-1.873-.703-2.026 5.404c-.437 1.165-1.566 1.947-2.81 1.947h-.228v-20.051c6.701-.514 12-6.119 12-12.949zm-59 12c-.552 0-1-.448-1-1s.448-1 1-1h10c.552 0 1 .448 1 1v1zm19 32c0 1.654-1.346 3-3 3s-3-1.346-3-3 1.346-3 3-3 3 1.346 3 3zm29 0c0 1.654-1.346 3-3 3s-3-1.346-3-3 1.346-3 3-3 3 1.346 3 3zm-5.499-37.944c-2.159-1.251-3.501-3.572-3.501-6.056v-.697l1.535-2.303h2.465v6h6v-6h2.465l1.535 2.303v.697c0 2.484-1.342 4.805-3.501 6.056l-.499.289v4.229c-.955.271-1.959.426-3 .426s-2.045-.155-3-.426v-4.229zm3.499-17.056c6.065 0 11 4.935 11 11 0 4.264-2.444 7.961-6 9.786v-2.311c2.481-1.663 4-4.476 4-7.475v-1.303l-2.465-3.697h-5.535v6h-2v-6h-5.535l-2.465 3.697v1.303c0 2.999 1.519 5.812 4 7.475v2.311c-3.556-1.825-6-5.521-6-9.786 0-6.065 4.935-11 11-11zm-19 20h8v4h-8zm-10 24v-24h8v6h12v-5.641c2.112 2.032 4.904 3.353 8 3.59v20.051z"/>
</svg>