<svg id="Capa_1" data-name="Capa 1" weight="265px" height="59px" xmlns="http://www.w3.org/2000/svg" viewBox="0 0 233.66 49.32"><defs><style>.cls-1,.cls-2{fill:#fff;}.cls-2{isolation:isolate;font-size:26.42px;font-family:Nunito-Bold, Nunito;font-weight:700;}</style></defs><title>3</title><path class="cls-1" d="M49.14,21.67A4.46,4.46,0,0,0,45,19.11H41.56L49.23,6.32a1.8,1.8,0,0,0,0-1.92,1.9,1.9,0,0,0-1.64-1H36.17a2,2,0,0,0-1.64.91L23.38,23.58v.09a5.91,5.91,0,0,0,.09,5.76,5.78,5.78,0,0,0,4.94,2.83h1.82L25.39,45.78a2.83,2.83,0,0,0,.18,2.56,3.22,3.22,0,0,0,2.65,1.37h0a3.75,3.75,0,0,0,2.56-1l.18-.18,10.51-13.7a2,2,0,0,0-.37-2.74,1.9,1.9,0,0,0-2.65.36L30.69,42.67,34.89,31a2,2,0,0,0-.27-1.73,1.81,1.81,0,0,0-1.56-.83H28.5a1.9,1.9,0,0,1-1.65-.91,2,2,0,0,1,0-1.92L37.45,7.32h6.94L36.72,20.11a1.8,1.8,0,0,0,0,1.92,1.92,1.92,0,0,0,1.64,1h6.85c.37,0,.55.18.55.36a.58.58,0,0,1-.09.64h0l-.82.91a2,2,0,0,0,.27,2.74,1.92,1.92,0,0,0,2.74-.27l.82-.91A5.08,5.08,0,0,0,49.14,21.67ZM23.2,36.1a.73.73,0,0,1-.37-.09,11.17,11.17,0,0,1,.55-22,.57.57,0,0,0,.37-.09,1.94,1.94,0,0,0,1.73-2.1,1.88,1.88,0,0,0-2.1-1.74,1.1,1.1,0,0,0-.55.1,14.82,14.82,0,0,0-9.13,4.93,15,15,0,0,0,8.4,24.66c.19,0,.28.09.46.09h.27a1.94,1.94,0,0,0,1.92-1.64A1.79,1.79,0,0,0,23.2,36.1ZM13.43,8.69a2,2,0,0,0,1.64.92,1.81,1.81,0,0,0,1-.28,1.92,1.92,0,0,0,.63-2.65L15.25,4.31a1.93,1.93,0,0,0-3.29,2ZM6.85,33.36,4.38,34.73a2,2,0,0,0,.92,3.65,1.77,1.77,0,0,0,.91-.27l2.47-1.37a1.94,1.94,0,0,0,.73-2.65A1.82,1.82,0,0,0,6.85,33.36ZM24.94,7.14a1.87,1.87,0,0,0,1.91-1.92V2.3A1.92,1.92,0,1,0,23,2.3V5.22A1.93,1.93,0,0,0,24.94,7.14ZM7.12,25a1.87,1.87,0,0,0-1.91-1.91H2.37a1.92,1.92,0,0,0,0,3.83H5.21A1.92,1.92,0,0,0,7.12,25ZM9,12.8,6.58,11.43a2,2,0,0,0-2.65.74,1.93,1.93,0,0,0,.73,2.64L7,16.18a1.73,1.73,0,0,0,.92.28A2,2,0,0,0,9,12.8Zm6.49,27.5a2,2,0,0,0-2.65.73L11.42,43.4a1.94,1.94,0,0,0,.73,2.65,1.77,1.77,0,0,0,1,.28,2.06,2.06,0,0,0,1.65-.92L16.17,43A2,2,0,0,0,15.44,40.3Z" transform="translate(-0.46 -0.38)"/><text class="cls-2" transform="translate(61.58 32.79)">Solar Supplier</text></svg>